<svg width="73" height="73" viewBox="0 0 73 73" fill="none" xmlns="http://www.w3.org/2000/svg">
<path d="M67.2847 22.2315H50.0852V4.77316C50.0852 2.14305 47.9555 0 45.3178 0H26.4967C23.8697 0 21.7292 2.13223 21.7292 4.77316V14.1571H29.0696V7.34915H42.7341V42.7636H36.7018V50.1128H50.0744V29.5806H64.701V42.7636H57.3823V50.1128H67.2739C69.9008 50.1128 72.0413 47.9806 72.0413 45.3396V27.0046C72.0413 24.3745 69.9117 22.2315 67.2847 22.2315Z" fill="#247CFF"/>
<path d="M42.7447 64.692H29.0803V29.5806H35.2206V22.2314H21.7399V42.7528H7.34033V29.5806H14.5401V22.2314H4.76743C2.12967 22.2314 0 24.3745 0 27.0046V45.3396C0 47.9697 2.12967 50.1128 4.76743 50.1128H21.7399V67.2788C21.7399 69.909 23.8696 72.052 26.5074 72.052H45.3284C47.9554 72.052 50.0959 69.9198 50.0959 67.2788V57.4078H42.7555V64.692H42.7447Z" fill="#247CFF"/>
</svg>
