<svg width="375" height="444" viewBox="0 0 375 444" fill="none" xmlns="http://www.w3.org/2000/svg">
<g opacity="0.05">
<path d="M-4.75026 306.36L101.014 306.36L101.014 413.715C101.014 429.888 114.11 443.067 130.33 443.067L246.066 443.067C262.22 443.067 275.382 429.955 275.382 413.715L275.382 356.011L230.244 356.011L230.244 397.875L146.218 397.875L146.218 180.102L183.312 180.102L183.312 134.91L101.08 134.91L101.08 261.168L11.1377 261.168L11.1377 180.102L56.1423 180.102L56.1423 134.91L-4.68375 134.91C-20.8376 134.91 -34 148.022 -34 164.262L-34 277.008C-34 293.181 -20.9041 306.36 -4.75026 306.36Z" fill="#247CFF"/>
<path d="M146.152 45.2584L230.178 45.2584L230.178 261.168L192.419 261.168L192.419 306.36L275.316 306.36L275.316 180.168L363.862 180.168L363.862 261.168L319.589 261.168L319.589 306.36L379.684 306.36C395.904 306.36 409 293.181 409 277.008L409 164.261C409 148.088 395.904 134.91 379.684 134.91L275.316 134.91L275.316 29.3515C275.316 13.1782 262.22 4.82032e-05 245.999 4.67852e-05L130.264 3.66672e-05C114.11 3.5255e-05 100.947 13.1117 100.947 29.3514L100.947 90.051L146.085 90.051L146.085 45.2584L146.152 45.2584Z" fill="#247CFF"/>
</g>
</svg>
